<svg width="36" height="36" viewBox="0 0 36 36" fill="none" xmlns="http://www.w3.org/2000/svg">
<path d="M21.8931 22.1181C22.47 22.1181 23.0339 21.9451 23.5135 21.621C23.9932 21.297 24.367 20.8364 24.5877 20.2975C24.8085 19.7587 24.8663 19.1657 24.7537 18.5936C24.6412 18.0216 24.3634 17.4961 23.9555 17.0837C23.5476 16.6712 23.0279 16.3904 22.4621 16.2766C21.8963 16.1628 21.3099 16.2212 20.7769 16.4444C20.244 16.6676 19.7885 17.0456 19.468 17.5306C19.1475 18.0155 18.9764 18.5857 18.9764 19.169L16.2056 20.4518C15.7294 20.1346 15.1717 19.9654 14.6014 19.9652C13.8279 19.9652 13.086 20.2759 12.539 20.829C11.9921 21.3821 11.6848 22.1322 11.6848 22.9143C11.6848 23.6965 11.9921 24.4466 12.539 24.9996C13.086 25.5527 13.8279 25.8634 14.6014 25.8634C15.0713 25.8636 15.5332 25.7417 15.9431 25.5095L19.0056 26.984C19.0794 27.6284 19.3613 28.2303 19.8077 28.6963C20.254 29.1623 20.8399 29.4665 21.4745 29.5618C22.1092 29.6571 22.7572 29.5381 23.3182 29.2233C23.8792 28.9085 24.3219 28.4155 24.5777 27.8206C24.8335 27.2257 24.8882 26.562 24.7332 25.9325C24.5783 25.303 24.2224 24.7427 23.7206 24.3384C23.2188 23.9341 22.5992 23.7084 21.9578 23.6962C21.3163 23.6839 20.6887 23.886 20.1723 24.2709L17.6202 23.0913L20.4056 21.7937C20.8643 22.033 21.3776 22.1449 21.8931 22.1181ZM27.6098 10.6462C26.7187 8.57591 25.1809 6.85819 23.2319 5.75619C21.283 4.6542 19.0305 4.22873 16.8195 4.54498C14.6085 4.86123 12.5611 5.90177 10.991 7.50713C9.42082 9.11249 8.41458 11.1941 8.12643 13.433C6.90466 13.7339 5.81176 14.4259 5.01062 15.406C4.20948 16.386 3.743 17.6015 3.68069 18.8714C3.61839 20.1413 3.9636 21.3976 4.66487 22.4529C5.36615 23.5083 6.38594 24.3063 7.57226 24.728C7.72351 24.7751 7.88068 24.7999 8.03893 24.8017C8.4257 24.8643 8.82122 24.7689 9.13847 24.5367C9.45571 24.3044 9.66871 23.9542 9.73059 23.5631C9.79248 23.172 9.69818 22.7721 9.46845 22.4513C9.23872 22.1306 8.89237 21.9152 8.50559 21.8526C7.95567 21.6519 7.4781 21.2887 7.13484 20.8102C6.79158 20.3317 6.59848 19.7599 6.58059 19.169C6.58059 18.3868 6.88788 17.6367 7.43486 17.0837C7.98185 16.5306 8.72371 16.2199 9.49726 16.2199C9.88403 16.2199 10.255 16.0646 10.5285 15.788C10.8019 15.5115 10.9556 15.1364 10.9556 14.7454C10.9593 13.0014 11.5743 11.3152 12.6914 9.98643C13.8085 8.65762 15.3552 7.77221 17.0569 7.48751C18.7586 7.20281 20.505 7.53725 21.9858 8.43142C23.4666 9.32558 24.5861 10.7216 25.1452 12.3714C25.2285 12.6248 25.3784 12.8505 25.5787 13.0245C25.7791 13.1985 26.0224 13.3142 26.2827 13.3593C27.1596 13.5198 27.9672 13.9472 28.5973 14.5845C29.2274 15.2217 29.6501 16.0383 29.8087 16.925C29.9672 17.8118 29.8542 18.7263 29.4847 19.5463C29.1152 20.3663 28.5068 21.0526 27.741 21.5135C27.4045 21.709 27.1586 22.0317 27.0574 22.4106C26.9562 22.7894 27.008 23.1934 27.2014 23.5336C27.3948 23.8738 27.714 24.1225 28.0886 24.2248C28.4633 24.3271 28.8629 24.2747 29.1993 24.0792C30.3051 23.4303 31.2226 22.4988 31.86 21.3781C32.4973 20.2575 32.832 18.9871 32.8306 17.6944C32.8262 16.108 32.3158 14.5654 31.3752 13.2956C30.4347 12.0258 29.1141 11.0967 27.6098 10.6462Z" fill="black"/>
</svg>
