<svg width="36" height="36" viewBox="0 0 36 36" fill="none" xmlns="http://www.w3.org/2000/svg">
<path d="M31.8389 14.0818L29.0827 13.1529L30.3806 10.5282C30.5122 10.2535 30.5562 9.94422 30.5065 9.64313C30.4569 9.34204 30.3161 9.06395 30.1035 8.84722L26.9972 5.70645C26.7818 5.48835 26.5041 5.34402 26.2033 5.29377C25.9024 5.24352 25.5936 5.28986 25.3202 5.42629L22.7243 6.73863L21.8056 3.95176C21.7085 3.66126 21.5244 3.40857 21.2787 3.22886C21.033 3.04915 20.738 2.95135 20.4347 2.94907H16.0597C15.754 2.94827 15.4558 3.04465 15.2072 3.22458C14.9586 3.4045 14.7722 3.65888 14.6743 3.95176L13.7556 6.73863L11.1597 5.42629C10.888 5.29326 10.5822 5.24876 10.2844 5.29895C9.98664 5.34913 9.7116 5.49151 9.49725 5.70645L6.391 8.84722C6.17529 9.0651 6.03255 9.34587 5.98285 9.65004C5.93315 9.95421 5.97898 10.2665 6.11391 10.5429L7.41183 13.1676L4.65558 14.0966C4.36828 14.1947 4.11837 14.3809 3.94063 14.6293C3.76289 14.8778 3.66617 15.176 3.66391 15.4826V19.9062C3.66313 20.2154 3.75844 20.5169 3.93639 20.7683C4.11434 21.0197 4.36593 21.2081 4.65558 21.3071L7.41183 22.236L6.11391 24.8607C5.98234 25.1354 5.93834 25.4447 5.98797 25.7457C6.0376 26.0468 6.17842 26.3249 6.391 26.5417L9.49725 29.6824C9.71274 29.9005 9.99042 30.0449 10.2912 30.0951C10.5921 30.1454 10.9009 30.099 11.1743 29.9626L13.7702 28.6502L14.6889 31.4371C14.7867 31.73 14.9731 31.9844 15.2217 32.1643C15.4704 32.3442 15.7686 32.4406 16.0743 32.4398H20.4493C20.7551 32.4406 21.0533 32.3442 21.3019 32.1643C21.5505 31.9844 21.7369 31.73 21.8347 31.4371L22.7535 28.6502L25.3493 29.9626C25.6193 30.0923 25.9222 30.1349 26.2169 30.0848C26.5117 30.0347 26.7841 29.8942 26.9972 29.6824L30.1035 26.5417C30.3192 26.3238 30.4619 26.043 30.5116 25.7388C30.5613 25.4347 30.5155 25.1224 30.3806 24.8459L29.0827 22.2213L31.8389 21.2923C32.1262 21.1942 32.3761 21.008 32.5539 20.7596C32.7316 20.5111 32.8283 20.2129 32.8306 19.9062V15.4826C32.8314 15.1735 32.7361 14.8719 32.5581 14.6206C32.3802 14.3692 32.1286 14.1807 31.8389 14.0818ZM29.9139 18.8446L28.1639 19.4344C27.7615 19.5664 27.3923 19.7853 27.0819 20.076C26.7715 20.3666 26.5274 20.7221 26.3665 21.1177C26.2055 21.5133 26.1316 21.9396 26.1499 22.3669C26.1682 22.7943 26.2782 23.2125 26.4722 23.5926L27.3035 25.2736L25.6993 26.8955L24.0806 26.0108C23.7066 25.8224 23.2969 25.7175 22.8794 25.7031C22.4618 25.6887 22.046 25.7652 21.6602 25.9274C21.2744 26.0896 20.9276 26.3337 20.6432 26.6432C20.3588 26.9527 20.1435 27.3203 20.0118 27.7213L19.4285 29.4907H17.1097L16.5264 27.7213C16.3959 27.3144 16.1794 26.9411 15.8919 26.6273C15.6044 26.3134 15.2529 26.0666 14.8616 25.9039C14.4704 25.7411 14.0488 25.6664 13.6261 25.6849C13.2035 25.7034 12.7898 25.8146 12.4139 26.0108L10.7514 26.8513L9.14725 25.2293L10.0222 23.5926C10.2163 23.2125 10.3263 22.7943 10.3446 22.3669C10.3629 21.9396 10.289 21.5133 10.128 21.1177C9.96709 20.7221 9.72297 20.3666 9.41258 20.076C9.1022 19.7853 8.733 19.5664 8.33058 19.4344L6.58058 18.8446V16.5443L8.33058 15.9545C8.733 15.8225 9.1022 15.6036 9.41258 15.3129C9.72297 15.0222 9.96709 14.6668 10.128 14.2712C10.289 13.8756 10.3629 13.4493 10.3446 13.022C10.3263 12.5946 10.2163 12.1764 10.0222 11.7963L9.191 10.1596L10.7952 8.53757L12.4139 9.37805C12.7898 9.5743 13.2035 9.68552 13.6261 9.70399C14.0488 9.72246 14.4704 9.64774 14.8616 9.48501C15.2529 9.32228 15.6044 9.07544 15.8919 8.76161C16.1794 8.44778 16.3959 8.07448 16.5264 7.66759L17.1097 5.89814H19.3847L19.9681 7.66759C20.0986 8.07448 20.3151 8.44778 20.6026 8.76161C20.8901 9.07544 21.2416 9.32228 21.6329 9.48501C22.0241 9.64774 22.4457 9.72246 22.8684 9.70399C23.291 9.68552 23.7047 9.5743 24.0806 9.37805L25.7431 8.53757L27.3472 10.1596L26.4722 11.7963C26.2859 12.1744 26.1821 12.5886 26.1679 13.0109C26.1536 13.4331 26.2293 13.8535 26.3897 14.2436C26.5501 14.6336 26.7915 14.9843 27.0976 15.2719C27.4037 15.5594 27.7674 15.7771 28.1639 15.9102L29.9139 16.5001V18.8446ZM18.2472 11.7963C17.0935 11.7963 15.9657 12.1422 15.0064 12.7903C14.0471 13.4384 13.2995 14.3596 12.858 15.4373C12.4164 16.5151 12.3009 17.701 12.526 18.8451C12.7511 19.9892 13.3067 21.0402 14.1225 21.8651C14.9383 22.6899 15.9777 23.2517 17.1092 23.4793C18.2408 23.7068 19.4137 23.59 20.4796 23.1436C21.5455 22.6972 22.4565 21.9412 23.0975 20.9713C23.7385 20.0013 24.0806 18.861 24.0806 17.6944C24.0806 16.1302 23.466 14.6299 22.372 13.5238C21.2781 12.4177 19.7943 11.7963 18.2472 11.7963ZM18.2472 20.6435C17.6704 20.6435 17.1065 20.4706 16.6268 20.1465C16.1472 19.8225 15.7734 19.3619 15.5526 18.823C15.3318 18.2841 15.2741 17.6912 15.3866 17.1191C15.4992 16.547 15.7769 16.0216 16.1849 15.6091C16.5928 15.1967 17.1125 14.9158 17.6782 14.802C18.244 14.6882 18.8305 14.7466 19.3634 14.9699C19.8964 15.1931 20.3519 15.571 20.6724 16.056C20.9929 16.541 21.1639 17.1112 21.1639 17.6944C21.1639 18.4766 20.8566 19.2267 20.3096 19.7797C19.7627 20.3328 19.0208 20.6435 18.2472 20.6435Z" fill="black"/>
</svg>
