<svg width="36" height="36" viewBox="0 0 36 36" fill="none" xmlns="http://www.w3.org/2000/svg">
<path d="M28.4556 2.94908H8.03893C6.8786 2.94908 5.76581 3.41514 4.94533 4.24473C4.12486 5.07432 3.66393 6.19948 3.66393 7.37269V22.1181C3.66393 23.2913 4.12486 24.4164 4.94533 25.246C5.76581 26.0756 6.8786 26.5417 8.03893 26.5417H11.8889L11.0431 28.0162C10.7871 28.4645 10.6523 28.9731 10.6523 29.4907C10.6523 30.0084 10.7871 30.517 11.0431 30.9653C11.3013 31.4175 11.6736 31.7923 12.122 32.0514C12.5704 32.3105 13.0788 32.4445 13.5952 32.4398H23.016C23.5275 32.4393 24.0298 32.3028 24.4726 32.044C24.9155 31.7852 25.2832 31.4132 25.5389 30.9653C25.7949 30.517 25.9297 30.0084 25.9297 29.4907C25.9297 28.9731 25.7949 28.4645 25.5389 28.0162L24.6785 26.5417H28.4556C29.6159 26.5417 30.7287 26.0756 31.5492 25.246C32.3697 24.4164 32.8306 23.2913 32.8306 22.1181V7.37269C32.8306 6.19948 32.3697 5.07432 31.5492 4.24473C30.7287 3.41514 29.6159 2.94908 28.4556 2.94908ZM13.5368 29.4907L15.3306 26.5417H21.1639L22.9139 29.4907H13.5368ZM29.9139 22.1181C29.9139 22.5091 29.7603 22.8842 29.4868 23.1607C29.2133 23.4372 28.8424 23.5926 28.4556 23.5926H8.03893C7.65215 23.5926 7.28122 23.4372 7.00773 23.1607C6.73424 22.8842 6.58059 22.5091 6.58059 22.1181V20.6435H29.9139V22.1181ZM29.9139 17.6945H6.58059V7.37269C6.58059 6.98162 6.73424 6.60657 7.00773 6.33004C7.28122 6.05351 7.65215 5.89816 8.03893 5.89816H28.4556C28.8424 5.89816 29.2133 6.05351 29.4868 6.33004C29.7603 6.60657 29.9139 6.98162 29.9139 7.37269V17.6945Z" fill="black"/>
</svg>
