<svg width="36" height="28" viewBox="0 0 36 28" fill="none" xmlns="http://www.w3.org/2000/svg">
<path d="M18.749 14.0459C19.599 13.302 20.2808 12.3818 20.7481 11.3479C21.2154 10.314 21.4572 9.1906 21.4572 8.05387C21.4572 5.91785 20.618 3.86932 19.1242 2.35892C17.6304 0.84853 15.6044 2.88185e-07 13.4918 2.88185e-07C11.3793 2.88185e-07 9.35327 0.84853 7.85947 2.35892C6.36568 3.86932 5.52647 5.91785 5.52647 8.05387C5.52646 9.1906 5.7683 10.314 6.23559 11.3479C6.70287 12.3818 7.38467 13.302 8.23469 14.0459C6.00461 15.067 4.11256 16.7158 2.78476 18.7954C1.45696 20.8749 0.749598 23.2971 0.747253 25.7724C0.747253 26.1996 0.915094 26.6093 1.21385 26.9114C1.51261 27.2134 1.91782 27.3831 2.34033 27.3831C2.76283 27.3831 3.16804 27.2134 3.4668 26.9114C3.76556 26.6093 3.9334 26.1996 3.9334 25.7724C3.9334 23.2091 4.94044 20.7509 6.733 18.9384C8.52555 17.126 10.9568 16.1077 13.4918 16.1077C16.0269 16.1077 18.4581 17.126 20.2507 18.9384C22.0432 20.7509 23.0503 23.2091 23.0503 25.7724C23.0503 26.1996 23.2181 26.6093 23.5169 26.9114C23.8156 27.2134 24.2208 27.3831 24.6433 27.3831C25.0658 27.3831 25.4711 27.2134 25.7698 26.9114C26.0686 26.6093 26.2364 26.1996 26.2364 25.7724C26.2341 23.2971 25.5267 20.8749 24.1989 18.7954C22.8711 16.7158 20.979 15.067 18.749 14.0459ZM13.4918 12.8862C12.5466 12.8862 11.6226 12.6028 10.8366 12.0718C10.0507 11.5408 9.43814 10.7861 9.07641 9.90311C8.71468 9.02012 8.62004 8.0485 8.80445 7.11113C8.98885 6.17375 9.44403 5.31271 10.1124 4.6369C10.7808 3.96109 11.6324 3.50085 12.5595 3.3144C13.4865 3.12794 14.4475 3.22364 15.3208 3.58939C16.194 3.95513 16.9405 4.5745 17.4656 5.36917C17.9908 6.16384 18.271 7.09812 18.271 8.05387C18.271 9.33548 17.7675 10.5646 16.8712 11.4708C15.975 12.3771 14.7594 12.8862 13.4918 12.8862ZM29.0084 13.4016C30.0279 12.2408 30.6938 10.8068 30.9261 9.27216C31.1584 7.73755 30.947 6.16777 30.3175 4.75178C29.688 3.33579 28.6671 2.13394 27.3778 1.29091C26.0885 0.447875 24.5857 -0.000414935 23.0503 2.88185e-07C22.6278 2.88185e-07 22.2226 0.169706 21.9238 0.471785C21.625 0.773863 21.4572 1.18357 21.4572 1.61077C21.4572 2.03798 21.625 2.44768 21.9238 2.74976C22.2226 3.05184 22.6278 3.22155 23.0503 3.22155C24.3178 3.22155 25.5334 3.73066 26.4297 4.6369C27.326 5.54314 27.8295 6.77225 27.8295 8.05387C27.8272 8.89991 27.6053 9.73053 27.186 10.4627C26.7666 11.1948 26.1645 11.8027 25.4399 12.2258C25.2037 12.3635 25.0064 12.5603 24.8669 12.7972C24.7275 13.0341 24.6505 13.3032 24.6433 13.5788C24.6367 13.8523 24.699 14.1229 24.8244 14.3653C24.9498 14.6076 25.1342 14.8137 25.3602 14.9641L25.9815 15.3829L26.1886 15.4956C28.1089 16.4165 29.7289 17.8731 30.8579 19.6938C31.9868 21.5145 32.5777 23.6235 32.5609 25.7724C32.5609 26.1996 32.7287 26.6093 33.0275 26.9114C33.3263 27.2134 33.7315 27.3831 34.154 27.3831C34.5765 27.3831 34.9817 27.2134 35.2805 26.9114C35.5792 26.6093 35.7471 26.1996 35.7471 25.7724C35.7601 23.3005 35.1478 20.8664 33.9683 18.7012C32.7889 16.536 31.0815 14.7117 29.0084 13.4016Z" fill="black"/>
</svg>
